<svg xmlns="http://www.w3.org/2000/svg" viewBox="0 0 142 236"><title>Asset 2</title><g id="Layer_2" data-name="Layer 2"><g id="Layer_1-2" data-name="Layer 1"><circle cx="6" cy="6" r="6" style="fill:#d6d6d6"/><circle cx="6" cy="38" r="6" style="fill:#d6d6d6"/><circle cx="6" cy="70" r="6" style="fill:#d6d6d6"/><circle cx="6" cy="102" r="6" style="fill:#d6d6d6"/><circle cx="6" cy="134" r="6" style="fill:#d6d6d6"/><circle cx="6" cy="166" r="6" style="fill:#d6d6d6"/><circle cx="6" cy="198" r="6" style="fill:#d6d6d6"/><circle cx="6" cy="230" r="6" style="fill:#d6d6d6"/><circle cx="39" cy="6" r="6" style="fill:#d6d6d6"/><circle cx="39" cy="38" r="6" style="fill:#d6d6d6"/><circle cx="39" cy="70" r="6" style="fill:#d6d6d6"/><circle cx="39" cy="102" r="6" style="fill:#d6d6d6"/><circle cx="39" cy="134" r="6" style="fill:#d6d6d6"/><circle cx="39" cy="166" r="6" style="fill:#d6d6d6"/><circle cx="39" cy="198" r="6" style="fill:#d6d6d6"/><circle cx="39" cy="230" r="6" style="fill:#d6d6d6"/><circle cx="70" cy="6" r="6" style="fill:#d6d6d6"/><circle cx="70" cy="38" r="6" style="fill:#d6d6d6"/><circle cx="70" cy="70" r="6" style="fill:#d6d6d6"/><circle cx="70" cy="102" r="6" style="fill:#d6d6d6"/><circle cx="70" cy="134" r="6" style="fill:#d6d6d6"/><circle cx="70" cy="166" r="6" style="fill:#d6d6d6"/><circle cx="70" cy="198" r="6" style="fill:#d6d6d6"/><circle cx="70" cy="230" r="6" style="fill:#d6d6d6"/><circle cx="103" cy="6" r="6" style="fill:#d6d6d6"/><circle cx="103" cy="38" r="6" style="fill:#d6d6d6"/><circle cx="103" cy="70" r="6" style="fill:#d6d6d6"/><circle cx="103" cy="102" r="6" style="fill:#d6d6d6"/><circle cx="103" cy="134" r="6" style="fill:#d6d6d6"/><circle cx="103" cy="166" r="6" style="fill:#d6d6d6"/><circle cx="103" cy="198" r="6" style="fill:#d6d6d6"/><circle cx="103" cy="230" r="6" style="fill:#d6d6d6"/><circle cx="136" cy="6" r="6" style="fill:#d6d6d6"/><circle cx="136" cy="38" r="6" style="fill:#d6d6d6"/><circle cx="136" cy="70" r="6" style="fill:#d6d6d6"/><circle cx="136" cy="102" r="6" style="fill:#d6d6d6"/><circle cx="136" cy="134" r="6" style="fill:#d6d6d6"/><circle cx="136" cy="166" r="6" style="fill:#d6d6d6"/><circle cx="136" cy="198" r="6" style="fill:#d6d6d6"/><circle cx="136" cy="230" r="6" style="fill:#d6d6d6"/></g></g></svg>